<svg width="558" height="259" viewBox="0 0 558 259" fill="none" xmlns="http://www.w3.org/2000/svg">
<path d="M554.061 79.4466H455.724C455.424 79.4461 455.129 79.3753 454.861 79.2397C454.594 79.1042 454.362 78.9077 454.185 78.6662L429.879 45.5258C417.298 28.3859 406.235 16.689 396.981 10.7697C392.213 7.71167 385.83 5.40303 378.029 3.89712C370.4 2.43183 361.135 1.68484 350.515 1.68484H334.782C333.448 1.68484 332.516 3.01795 332.993 4.27619L333.394 5.33853L342.041 28.3214L342.236 28.831C342.374 29.1944 342.618 29.5072 342.938 29.7279C343.257 29.9485 343.637 30.0665 344.025 30.0662H362.944C378.017 30.0662 389.601 31.6597 397.349 34.8045C404.977 37.8936 413.321 45.3196 422.174 56.8652L437.052 76.3568C438.017 77.615 437.118 79.4355 435.535 79.4355H3.51039C3.00187 79.4363 2.51441 79.6388 2.15483 79.9985C1.79524 80.3583 1.59286 80.8459 1.59202 81.3547V102.148C1.59307 102.656 1.79555 103.144 2.15511 103.503C2.51467 103.863 3.002 104.065 3.51039 104.066H108.295C108.783 104.066 109.249 104.251 109.596 104.576C116.921 111.46 120.627 118.474 120.627 125.434C120.627 133.824 117.018 139.852 109.607 143.885C101.761 148.156 87.5009 150.411 67.2155 150.595L65.9156 150.607C64.4741 150.617 63.5634 152.156 64.2464 153.425L64.8641 154.574L75.8092 174.987L76.0361 175.421C76.2036 175.733 76.4543 175.992 76.7604 176.17C77.0665 176.348 77.4159 176.438 77.7698 176.429L78.2577 176.418C91.001 176.082 101.891 174.293 110.669 171.095C110.983 170.982 111.322 170.953 111.651 171.012C111.98 171.071 112.288 171.215 112.543 171.431C117.235 175.345 120.854 179.638 123.314 184.224C126.11 189.406 127.519 195.162 127.519 201.299C127.519 209.147 124.604 215.24 118.622 219.923C112.435 224.769 105.489 227.132 97.3722 227.132C89.1264 227.132 80.8041 223.739 72.6554 217.061C64.2361 210.166 55.1226 198.968 45.5976 183.78L25.0527 151.181L24.6515 150.541C24.3888 150.123 23.9746 149.824 23.4958 149.704C23.017 149.585 22.5106 149.656 22.0828 149.902L21.4333 150.281L15.7545 153.533L15.0397 153.913C14.8163 154.041 14.6211 154.213 14.4656 154.419C14.3102 154.624 14.1977 154.859 14.135 155.109C14.0723 155.359 14.0606 155.619 14.1006 155.873C14.1406 156.128 14.2315 156.372 14.3679 156.59L14.8009 157.284L35.7478 190.826C51.7738 216.432 64.3881 232.336 74.3135 239.458C84.2827 246.613 94.9125 250.245 105.901 250.245C118.438 250.245 129.003 246.44 137.304 238.927C145.702 231.349 149.96 221.603 149.96 209.949C149.96 200.789 147.457 192.051 142.538 183.996C138.572 177.513 132.947 171.334 125.785 165.588C125.561 165.41 125.381 165.184 125.256 164.927C125.131 164.67 125.065 164.389 125.063 164.103C125.061 163.817 125.123 163.534 125.244 163.276C125.365 163.017 125.543 162.788 125.763 162.607C129.329 159.669 132.2 156.266 134.345 152.449C137.445 146.92 139.016 140.427 139.016 133.142C139.016 123.146 135.939 114.462 129.827 107.221C128.775 105.974 129.653 104.066 131.279 104.066H385.234C385.486 104.066 385.736 104.115 385.969 104.211C386.202 104.308 386.413 104.449 386.592 104.627C386.77 104.805 386.911 105.017 387.007 105.25C387.104 105.483 387.153 105.733 387.152 105.985V128.935C387.151 129.444 386.949 129.931 386.589 130.291C386.23 130.651 385.742 130.853 385.234 130.854H307.94C306.228 130.854 305.383 132.935 306.597 134.128L307.962 135.483C324.715 151.972 334.673 163.062 337.545 168.439C340.34 173.643 341.759 178.11 341.759 181.709C341.759 186.392 340.351 190.024 337.458 192.799C334.521 195.617 330.805 196.983 326.08 196.983C319.524 196.983 311.701 192.778 302.858 184.462C295.858 177.893 288.425 166.813 280.763 151.538L280.742 151.495L271.986 132.426L271.78 131.971C271.629 131.638 271.385 131.356 271.078 131.157C270.77 130.959 270.412 130.854 270.047 130.854H197.553C195.84 130.854 194.995 132.935 196.209 134.128L197.585 135.483C214.338 151.972 224.296 163.062 227.168 168.439C229.964 173.643 231.383 178.11 231.383 181.709C231.383 186.392 229.974 190.024 227.081 192.799C224.144 195.617 220.427 196.983 215.703 196.983C209.147 196.983 201.323 192.778 192.481 184.462C183.379 175.92 173.605 159.832 163.441 136.665L163.082 135.841C162.972 135.592 162.811 135.369 162.608 135.188C162.405 135.007 162.167 134.87 161.907 134.788C161.648 134.706 161.374 134.68 161.104 134.712C160.834 134.744 160.574 134.833 160.341 134.973L159.572 135.429L154.165 138.681L153.612 139.017C153.232 139.244 152.942 139.597 152.794 140.014C152.645 140.432 152.647 140.888 152.8 141.304L153.016 141.912C161.837 166.629 172.153 186.306 183.682 200.388C189.545 207.564 195.602 213.039 201.67 216.671C207.89 220.389 214.294 222.275 220.709 222.275C231.047 222.275 239.716 218.85 246.478 212.085C253.228 205.331 256.663 196.745 256.663 186.576C256.663 181.015 255.027 175.139 251.809 169.112C249.967 165.654 247.572 162.087 244.647 158.455C243.639 157.208 244.527 155.343 246.131 155.343H267.229C267.998 155.343 268.703 155.81 268.995 156.525C276.45 174.456 284.87 189.2 294.037 200.399C299.9 207.576 305.957 213.05 312.025 216.682C318.245 220.4 324.66 222.287 331.075 222.287C341.413 222.287 350.082 218.861 356.844 212.096C363.605 205.342 367.029 196.756 367.029 186.587C367.029 181.026 365.394 175.15 362.186 169.123C360.344 165.664 357.938 162.097 355.023 158.455C354.016 157.208 354.904 155.343 356.508 155.343H385.234C385.486 155.343 385.736 155.392 385.969 155.489C386.202 155.585 386.413 155.726 386.592 155.905C386.77 156.083 386.911 156.295 387.007 156.528C387.104 156.761 387.153 157.01 387.152 157.263V238.559C387.152 239.036 387.336 239.501 387.662 239.859L387.867 240.087L403.547 257.118L403.786 257.378C404.154 257.768 404.664 257.996 405.195 257.996H412.01C412.519 257.995 413.006 257.793 413.365 257.433C413.725 257.074 413.927 256.586 413.929 256.078V106.007C413.929 105.498 414.132 105.011 414.491 104.651C414.851 104.292 415.338 104.089 415.846 104.088H441.095C441.603 104.089 442.09 104.292 442.45 104.651C442.809 105.011 443.011 105.498 443.012 106.007V236.78C443.012 237.236 443.175 237.68 443.479 238.027L443.674 238.255L459.895 257.042L460.133 257.314C460.491 257.736 461.022 257.975 461.575 257.975H467.697C468.206 257.974 468.693 257.771 469.053 257.411C469.412 257.052 469.615 256.564 469.615 256.055V105.985C469.616 105.477 469.819 104.989 470.178 104.629C470.537 104.27 471.025 104.067 471.533 104.066H554.874C555.382 104.065 555.87 103.863 556.229 103.503C556.588 103.144 556.791 102.656 556.792 102.148V81.3547C556.791 80.846 556.589 80.3583 556.229 79.9986C555.87 79.6388 555.382 79.4363 554.874 79.4355L554.061 79.4466Z" fill="#FFFCF7" stroke="black" stroke-width="2.6806" stroke-miterlimit="10"/>
</svg>
