<svg width="657" height="384" viewBox="0 0 657 384" fill="none" xmlns="http://www.w3.org/2000/svg">
<path d="M147.396 303.161C147.396 363.046 128.442 383.717 73.7026 383.717C18.9645 383.717 7.62939e-06 363.046 7.62939e-06 303.161V6.37121H26.3148V273.477C26.3148 298.386 40.0051 308.453 73.6923 308.453C107.38 308.453 121.07 298.386 121.07 273.477V6.37121H147.396V303.161ZM243.885 377.361H170.193V302.107H243.885C282.836 302.107 291.263 292.04 291.263 267.131V6.37121H317.589V296.794C317.589 356.162 304.426 377.361 243.885 377.361ZM413.02 377.361H339.327V302.107H413.02C451.97 302.107 460.397 292.04 460.397 267.131V6.37121H486.723V296.794C486.712 356.162 473.549 377.361 413.02 377.361ZM582.749 383.718C522.208 383.718 509.056 362.52 509.056 303.162V80.5714C509.056 21.2141 522.219 0.0151672 582.749 0.0151672C643.289 0.0151672 656.441 21.2133 656.441 80.5714V303.162C656.441 362.52 643.289 383.718 582.749 383.718ZM582.749 75.2701C543.798 75.2701 535.371 85.3362 535.371 110.245V273.477C535.371 298.386 543.798 308.453 582.749 308.453C621.699 308.453 630.126 298.386 630.126 273.477V110.256C630.126 85.3473 621.699 75.2693 582.749 75.2693V75.2701Z" fill="black"/>
</svg>
